<svg width="40" height="41" viewBox="0 0 40 41" fill="none" xmlns="http://www.w3.org/2000/svg">
<path d="M35.5892 36.9902C35.2192 36.9902 34.8692 36.8402 34.5992 36.5802L22.7292 24.7102C22.1892 24.1702 22.1892 23.2802 22.7292 22.7402L37.1092 8.36024C37.4692 8.00024 37.9992 7.87024 38.4792 8.01024C38.9692 8.15024 39.3392 8.55024 39.4492 9.04024C39.8092 10.6302 39.9892 12.3902 39.9892 14.4302V25.5902C39.9892 30.7402 38.8992 34.2302 36.5692 36.5802C36.3092 36.8402 35.9492 36.9902 35.5792 36.9902H35.5892ZM25.6892 23.7202L35.4792 33.5102C36.6492 31.7102 37.2092 29.1402 37.2092 25.5802V14.4202C37.2092 13.6602 37.1792 12.9602 37.1292 12.2902L25.6892 23.7302V23.7202Z" fill="white"/>
<path d="M9.34 39.5C9.24 39.5 9.13 39.49 9.03 39.46C5.84 38.73 3.57 37.23 2.09 34.86C0.69 32.62 0 29.59 0 25.58V14.42C0 9.26 1.09 5.77 3.43 3.43C5.77 1.09 9.26 0 14.42 0H25.58C29.59 0 32.63 0.68 34.86 2.09C37.22 3.57 38.73 5.84 39.46 9.03C39.57 9.5 39.43 9.99 39.09 10.33L10.33 39.09C10.07 39.35 9.71 39.5 9.34 39.5ZM14.42 2.79C10.05 2.79 7.19 3.62 5.41 5.4C3.63 7.18 2.8 10.05 2.8 14.41V25.57C2.8 29.04 3.34 31.59 4.46 33.37C5.43 34.92 6.86 35.94 8.93 36.54L36.57 8.9C35.97 6.84 34.95 5.41 33.4 4.43C31.62 3.31 29.07 2.77 25.6 2.77H14.44L14.42 2.79Z" fill="white"/>
<path d="M25.5809 40.0001H14.4209C12.3809 40.0001 10.6209 39.8201 9.03091 39.4601C8.53091 39.3501 8.14091 38.9701 8.00091 38.4901C7.86091 38.0001 8.00091 37.4801 8.35091 37.1201L22.7309 22.7401C22.9909 22.4801 23.3509 22.3301 23.7209 22.3301C24.0909 22.3301 24.4409 22.4801 24.7109 22.7401L36.5809 34.6101C36.8409 34.8701 36.9909 35.2301 36.9909 35.6001C36.9909 35.9701 36.8409 36.3301 36.5809 36.5901C34.2309 38.9201 30.7309 40.0101 25.5909 40.0101L25.5809 40.0001ZM12.2809 37.1301C12.9509 37.1801 13.6609 37.2101 14.4109 37.2101H25.5709C29.1309 37.2101 31.7009 36.6601 33.5009 35.4801L23.7109 25.6901L12.2709 37.1301H12.2809Z" fill="white"/>
<path d="M14.6494 22.43C13.4794 22.43 12.2994 22 11.3794 21.13C10.1594 19.98 9.22941 18.76 8.61941 17.51C7.74941 15.75 7.51941 13.97 7.92941 12.21C8.30941 10.59 9.19941 9.25004 10.5094 8.32004C11.6794 7.50004 13.1394 7.04004 14.6394 7.04004C16.1394 7.04004 17.6094 7.49004 18.7694 8.32004C20.0894 9.25004 20.9794 10.59 21.3494 12.21C21.7494 13.97 21.5094 15.75 20.6494 17.51C20.0294 18.77 19.1094 19.98 17.8994 21.13C16.9894 22 15.8194 22.43 14.6394 22.43H14.6494ZM14.6494 9.83004C13.1294 9.83004 11.1694 10.62 10.6494 12.84C10.0594 15.38 11.7694 17.65 13.2994 19.1C14.0594 19.82 15.2394 19.82 15.9894 19.1C17.5194 17.65 19.2194 15.38 18.6394 12.83C18.1194 10.61 16.1594 9.83004 14.6394 9.83004H14.6494Z" fill="white"/>
<path d="M14.6105 15.72H14.5905C13.5605 15.72 12.7305 14.89 12.7305 13.86C12.7305 12.83 13.5605 12 14.5905 12H14.6105C15.6405 12 16.4705 12.83 16.4705 13.86C16.4705 14.89 15.6405 15.72 14.6105 15.72Z" fill="white"/>
</svg>
