<svg width="24" height="24" viewBox="0 0 24 24" fill="none" xmlns="http://www.w3.org/2000/svg">
<path d="M18.75 0H5.25C2.352 0 0 2.352 0 5.25V18.75C0 21.648 2.352 24 5.25 24H18.75C21.648 24 24 21.648 24 18.75V5.25C24 2.352 21.648 0 18.75 0Z" fill="#006634"/>
<path d="M4.0207 8.30591C4.1587 8.20391 4.1467 8.48591 4.0327 8.80391C4.0987 8.68991 4.2367 8.45591 4.2247 8.26391C4.1887 8.01791 4.0447 8.05991 3.9307 8.20991C3.8407 8.31191 3.9067 8.40191 4.0207 8.31191V8.30591Z" fill="white"/>
<path d="M4.06854 10.3279C4.23654 10.0219 4.17054 9.75193 4.33254 9.30193C4.42254 9.01993 4.45854 9.23593 4.42254 9.40393C4.34454 9.85393 4.36854 10.5919 5.01654 10.5799C5.05254 10.9879 5.16654 11.7439 5.16654 12.0019C5.17854 12.2719 5.21454 12.1939 5.28054 12.0499C5.34654 11.8999 5.33454 11.7439 5.32854 11.5279C5.30454 11.2999 5.29254 10.9279 5.25054 10.4239C5.34054 10.3579 5.41854 10.2439 5.45454 10.1779C5.54454 10.0099 5.56854 10.0219 5.60454 10.1539C5.67054 10.4239 5.94654 10.6039 6.31254 10.3459C6.65454 10.1059 6.50454 9.61393 6.36054 9.06793C6.48654 9.09193 6.52854 8.98993 6.45054 8.85193C6.41454 8.77393 6.34854 8.70193 6.28854 8.63593C6.22854 8.56993 6.17454 8.50993 6.12054 8.58193C6.07254 8.64793 6.01854 8.70793 5.98254 8.74993C5.94654 8.79793 5.94654 8.83993 5.99454 8.95393C6.13254 9.27193 6.22254 9.60793 6.24654 9.79993C6.28254 9.97993 6.21054 10.0279 6.08454 10.0279C5.95854 10.0279 5.79054 9.99193 5.71854 9.72193C5.65254 9.45193 5.61654 9.32593 5.62854 9.14593C5.64054 8.96593 5.66454 8.83993 5.53854 8.65993C5.40054 8.47993 5.38854 8.51593 5.35854 8.60593C5.33454 8.70793 5.29254 8.85193 5.33454 9.02593C5.38854 9.27193 5.42454 9.48793 5.46054 9.63793C5.48454 9.73993 5.38254 9.95593 5.23254 10.0699C5.19654 9.73393 5.14254 9.27793 5.11854 8.91793C5.31054 8.85193 5.20854 8.58793 5.05254 8.30593C4.93854 8.08993 4.89054 8.17993 4.81254 8.31793C4.73454 8.45593 4.78854 8.50993 4.84854 8.62393C4.80054 8.71393 4.88454 8.85193 4.91454 9.09793C4.92654 9.25393 4.96254 9.70993 4.99254 10.1059C4.83054 10.1059 4.74054 10.0039 4.68654 9.86593C4.56054 9.58393 4.59654 9.32593 4.65054 9.15193C4.70454 8.98393 4.76454 8.71993 4.66254 8.65393C4.57254 8.58793 4.44654 8.66593 4.36854 8.79193C4.23054 8.99593 4.10454 9.28993 4.09254 9.59593C4.08054 9.72193 4.04454 9.95593 3.99054 10.0459C3.94254 10.1359 3.86454 10.1479 3.78654 10.0099C3.64854 9.79393 3.60654 9.25393 3.61254 8.97193C3.61254 8.83393 3.57654 8.81593 3.53454 8.97193C3.38454 9.51193 3.55854 10.0999 3.68454 10.3519C3.81054 10.5979 3.96654 10.5439 4.08054 10.3399L4.06854 10.3279Z" fill="white"/>
<path d="M5.77715 8.49793C5.83115 8.43193 5.83115 8.41993 5.89115 8.50993C5.92715 8.57593 6.04115 8.55793 6.07115 8.48593C6.09515 8.43193 6.13115 8.37193 6.09515 8.29393C6.05915 8.21593 6.05915 8.23393 6.04115 8.32993C6.01715 8.47393 5.87915 8.44393 5.86715 8.26393C5.86715 8.09593 5.83115 8.18593 5.78915 8.29993C5.71115 8.46793 5.59715 8.43193 5.59715 8.28793C5.59715 8.16193 5.56115 8.05993 5.50715 8.20993C5.47115 8.29993 5.49515 8.41393 5.55515 8.47993C5.60915 8.55793 5.71715 8.55793 5.78315 8.50393L5.77715 8.49793Z" fill="white"/>
<path d="M4.70421 11.1381C4.81821 11.1021 4.83021 11.0901 4.81821 10.9701C4.81821 10.8321 4.75221 10.8921 4.61421 10.9341C4.39821 11.0001 3.97821 11.2041 3.64821 11.6001C3.51021 11.7561 3.62421 11.6781 3.71421 11.6121C3.89421 11.4741 4.44021 11.2041 4.70421 11.1381Z" fill="white"/>
<path d="M4.00879 13.3519C3.89479 13.5319 3.69079 13.2979 3.82879 12.8119C3.85279 12.7099 3.89479 12.6319 3.89479 12.5539C3.89479 12.5059 3.89479 12.4279 3.88279 12.3139C3.85879 12.2359 3.81679 12.3499 3.78079 12.4939C3.73279 12.7099 3.58879 12.8119 3.64279 13.4539C3.67879 13.8619 4.14679 13.8259 4.15279 13.3399C4.16479 13.1899 4.10479 13.1719 4.00279 13.3519H4.00879Z" fill="white"/>
<path d="M7.13999 11.9061C7.13999 11.7381 7.12799 11.5581 7.11599 11.3661C7.13999 11.3541 7.15199 11.3301 7.16399 11.3181C7.26599 11.6481 7.74599 11.5581 7.88999 11.3661C7.96799 11.2761 7.96799 11.2641 8.03999 11.3661C8.14199 11.5101 8.49599 11.5581 8.58599 11.3541C8.66399 11.1381 8.65199 10.9341 8.63399 10.7781C8.60999 10.6221 8.57999 10.6281 8.47199 10.7121C8.35799 10.8021 8.44799 10.8141 8.45999 10.9281C8.50799 11.3601 8.12999 11.3241 8.08199 10.8801C8.05799 10.6101 8.01599 10.7121 7.97999 10.8381C7.81799 11.3661 7.35599 11.4681 7.39799 10.8621C7.40999 10.6821 7.29599 10.7361 7.23599 10.8081C7.18199 10.8561 7.13399 10.9101 7.07399 10.9461C7.03799 10.4481 7.00799 9.88411 6.94799 9.20611C7.08599 9.37411 7.21199 9.18211 7.11599 8.99011C7.04999 8.84611 6.94799 8.51611 6.87599 8.33611C6.82199 8.15611 6.78599 8.21011 6.63599 8.36011C6.49799 8.51611 6.52199 8.55211 6.58799 8.70811C6.56399 8.90011 6.59999 9.09211 6.64799 9.48811C6.68399 9.77011 6.77399 10.3581 6.81599 11.1021C6.74999 11.1381 6.64799 11.2041 6.57599 11.2401C6.51599 11.1141 6.43799 11.0121 6.31199 10.8921C6.10799 10.6881 5.93399 10.6761 5.76599 10.9281C5.60399 11.1681 5.61599 11.2221 5.62799 11.4381C5.63999 11.6541 5.59199 11.7321 5.76599 11.7861C5.92799 11.8461 5.99399 11.8221 6.09599 11.7861C6.17399 11.7621 6.28799 11.7321 6.40199 11.6841C6.42599 11.7981 6.41399 11.9241 6.34799 12.0141C5.92799 12.5121 5.27999 12.8721 4.99199 12.5481C4.82999 12.3681 4.76399 12.0861 4.81199 11.7441C4.85999 11.4621 4.76399 11.5881 4.73399 11.6901C4.63199 12.0201 4.59599 12.4941 4.73399 12.7281C4.92599 13.0581 5.23199 13.2021 5.72399 12.9861C6.21599 12.7701 6.68999 12.3861 6.67199 11.8581C6.67199 11.7561 6.65999 11.6661 6.65999 11.6001C6.70799 11.5761 6.78599 11.5221 6.83999 11.4981C6.85199 11.6781 6.82799 11.9061 6.83999 12.0861C6.86399 12.6621 6.63599 12.8301 6.43199 12.9921C6.14999 13.2201 5.75999 13.3641 5.42999 13.4241C4.64399 13.5381 4.46399 13.0401 4.47599 12.3741C4.47599 12.2721 4.52399 12.2061 4.52399 12.0561C4.51199 11.7741 4.47599 11.8161 4.38599 12.1041C4.30799 12.3741 4.20599 13.0101 4.46399 13.5261C4.73999 14.0481 5.65799 13.8981 6.37799 13.5621C7.08599 13.2261 7.16399 12.5781 7.12799 11.9361L7.13999 11.9061ZM6.16199 11.3841C5.95799 11.4381 5.92199 11.3601 5.93399 11.2341C5.94599 11.1081 5.95799 11.0781 6.09599 11.1321C6.14999 11.1561 6.22199 11.2341 6.28799 11.3361C6.23999 11.3481 6.19799 11.3721 6.16199 11.3841Z" fill="white"/>
<path d="M7.9626 12.494C8.0286 12.356 8.0766 12.2 8.0406 12.044C8.0286 11.93 8.0286 11.894 7.9266 11.852C7.8126 11.804 7.7766 11.876 7.7466 11.966C7.6986 12.08 7.7586 12.206 7.9146 12.134C7.9386 12.212 7.9266 12.392 7.8906 12.47C7.8426 12.572 7.8906 12.614 7.9566 12.494H7.9626Z" fill="white"/>
<path d="M8.22607 9.64989C8.08807 9.81789 7.98607 10.0699 8.17807 10.2139C8.28007 10.3039 8.49607 10.2019 8.57407 10.0339C8.65207 9.85389 8.62207 9.82989 8.48407 9.97989C8.29207 10.1959 8.09407 10.0039 8.30407 9.70989C8.44207 9.50589 8.35807 9.46389 8.22607 9.65589V9.64989Z" fill="white"/>
<path d="M7.65603 9.67991C8.14803 9.46391 8.43003 9.20591 8.58003 8.96591C8.71803 8.98991 8.75403 8.87591 8.68203 8.78591C8.73003 8.69591 8.76003 8.60591 8.77203 8.53991C8.89803 8.08991 8.44203 8.04191 8.30403 8.39591C8.25003 8.55191 8.25003 8.73191 8.39403 8.85791C8.20203 9.12791 7.89603 9.38591 7.56003 9.60191C7.39203 9.70391 7.42203 9.78191 7.65003 9.67991H7.65603ZM8.49603 8.46191C8.54403 8.35991 8.59803 8.42591 8.57403 8.49791C8.56203 8.54591 8.53803 8.59991 8.52003 8.64191C8.45403 8.59391 8.46003 8.53991 8.49603 8.46191Z" fill="white"/>
<path d="M9.71435 9.96209C9.81635 9.71609 9.88235 9.46409 9.95435 9.29609C10.0204 9.12809 10.0804 9.15809 10.0684 9.32009C10.0324 9.63809 10.0144 10.1421 10.3324 10.3341C10.6504 10.5261 11.1424 10.1961 11.3104 9.86009C11.8204 10.5381 12.2764 10.2201 12.3364 9.56609C12.3484 9.36209 12.2584 8.92409 12.1984 8.79809C12.1444 8.66009 12.1744 8.66009 12.2584 8.73209C12.3364 8.81009 12.4744 8.85809 12.4084 8.63009C12.3304 8.41409 12.2344 8.29409 12.1144 8.18609C12.0004 8.08409 11.9764 8.14409 11.9344 8.22209C11.8864 8.30009 11.8984 8.32409 11.8324 8.37809C11.7664 8.44409 11.7784 8.48009 11.8324 8.60609C12.0244 9.10409 12.2104 9.82409 11.8984 9.89609C11.6164 9.95009 11.4304 9.34409 11.4184 9.07409C11.4064 8.71409 11.3584 8.40809 11.2924 8.21609C11.2144 8.02409 11.1904 7.98809 11.1364 8.09009C11.0884 8.16809 11.0764 8.22209 11.0344 8.30609C10.9864 8.38409 11.0344 8.40809 11.0704 8.56409C11.2384 9.35609 11.2204 9.71609 10.8544 9.92009C10.4884 10.1361 10.2964 9.93209 10.2964 9.68609C10.2844 9.44009 10.2844 9.13409 10.3204 8.90609C10.3444 8.67809 10.3984 8.64809 10.3204 8.53409C10.2424 8.40809 10.1704 8.45609 10.0684 8.60009C9.84035 8.91809 9.61235 9.44609 9.53435 9.69809C9.45635 9.95609 9.29435 9.86609 9.18035 9.65009C9.05435 9.39209 9.06635 8.93009 9.11435 8.74409C9.16235 8.56409 9.13835 8.48609 9.06035 8.69009C8.88035 9.20009 8.89235 9.68609 9.26435 10.1001C9.48035 10.3401 9.64235 10.2261 9.73235 9.96209H9.71435Z" fill="white"/>
<path d="M10.7155 9.02604C10.7035 9.14004 10.7275 9.25404 10.7815 9.05004C10.8295 8.84604 10.8175 8.56404 10.7575 8.39604C10.7035 8.22804 10.6315 8.18004 10.5835 8.24604C10.5055 8.32404 10.5055 8.33604 10.5715 8.43804C10.6375 8.51604 10.7455 8.76804 10.7095 9.02604H10.7155Z" fill="white"/>
<path d="M8.84964 12.4819C8.79564 12.5359 8.68164 12.6079 8.59764 12.6739C8.58564 12.5299 8.60964 12.3259 8.60964 12.2419C8.60964 12.1399 8.57364 12.0979 8.51964 12.2179C8.41764 12.4219 8.31564 12.7039 8.26764 12.9079C7.79964 13.2379 7.22964 13.5379 6.86964 13.7179C6.70164 13.7959 6.80364 13.8559 6.92364 13.8079C7.46964 13.6519 7.88964 13.5019 8.25564 13.3339C8.27964 13.6279 8.40564 13.8619 8.66364 13.9219C9.18564 14.0599 9.74364 13.6159 10.3136 12.8119C10.4636 13.2079 10.7936 13.7179 11.7116 13.8619C12.0896 13.9159 12.0896 13.8739 12.1316 13.7059C12.1856 13.5259 12.2216 13.4899 11.9156 13.4119C11.5196 13.2679 11.3816 12.9859 11.7656 12.8239C12.1556 12.6679 12.6896 12.5059 13.0496 12.4399C13.2776 12.4039 13.3676 12.4279 13.4516 12.1999C13.5296 11.9599 13.5776 11.9179 13.3016 11.9419C13.0256 11.9779 11.6636 11.9959 11.3336 11.9779C11.6096 11.8339 11.9936 11.6839 12.2876 11.5819C12.3896 11.6479 12.4376 11.6299 12.4016 11.5459C12.5276 11.4979 12.6296 11.4559 12.7076 11.4079C13.0376 11.2159 13.1756 10.8439 12.8336 10.6039C12.4916 10.3639 12.1976 10.2859 12.0116 10.5499C11.8616 10.7659 11.7356 10.9699 11.9336 11.2519C11.6276 11.3419 11.3276 11.4559 11.0336 11.5699C10.8176 11.6599 10.7276 11.6959 10.6496 11.9539C10.5716 12.2119 10.5356 12.2479 10.8296 12.2599C11.2256 12.2839 11.5796 12.2479 11.8076 12.4639C11.4296 12.6019 11.1476 12.8959 11.2856 13.2799C11.1056 13.2319 10.9316 13.1539 10.7936 13.0339C10.4996 12.7639 10.5176 12.2659 10.3976 11.6899C10.2836 11.1139 10.0316 10.6279 9.95364 10.4359C9.87564 10.2319 9.83964 10.3219 9.77364 10.4719C9.71964 10.6219 9.64764 10.6999 9.71964 10.8799C9.85764 11.2399 10.0856 11.9539 10.1876 12.3499C9.95964 12.8239 9.42564 13.4479 8.94564 13.5139C8.57964 13.5679 8.50164 13.3759 8.52564 13.1839C8.77764 13.0459 8.99364 12.8779 9.19764 12.6619C9.64164 12.2299 9.70764 11.8579 9.42564 11.1379C9.60564 11.1619 9.57564 11.0239 9.31164 10.7179C9.13164 10.5019 9.09564 10.5499 9.00564 10.7419C8.91564 10.9339 8.85564 11.0479 9.06564 11.1259C9.10164 11.2159 9.17964 11.3659 9.28164 11.5699C9.52164 12.0199 9.16764 12.1999 8.84964 12.4819ZM12.4376 10.9339C12.5996 11.0359 12.7316 11.0599 12.4916 11.1139C12.4016 11.1379 12.3176 11.1499 12.2396 11.1679C12.2156 11.0779 12.2156 11.0119 12.2036 10.9399C12.1916 10.8259 12.2576 10.8259 12.4316 10.9279L12.4376 10.9339Z" fill="white"/>
<path d="M11.4535 10.6639C11.4535 10.9459 11.3635 10.9459 11.2615 10.6759C11.2255 10.5739 11.1835 10.5739 11.1715 10.7119C11.1715 10.9699 11.0575 11.0059 10.9915 10.7479C10.9675 10.6339 10.9435 10.5439 10.9255 10.7119C10.9015 10.8679 10.9375 10.9699 10.9915 11.0479C11.0455 11.1259 11.1595 11.1139 11.1955 11.0239C11.2315 10.9219 11.2555 10.9099 11.3215 10.9879C11.3995 11.0659 11.6635 10.9999 11.5375 10.6039C11.4835 10.4479 11.4595 10.4779 11.4595 10.6579L11.4535 10.6639Z" fill="white"/>
<path d="M14.3039 8.47404C14.3939 8.54004 14.5319 8.72004 14.4779 8.92404C14.4419 9.08004 14.4779 9.20603 14.5799 8.97803C14.6819 8.73803 14.6039 8.45604 14.5019 8.27604C14.4119 8.12004 14.3519 8.15004 14.2979 8.24004C14.2499 8.33004 14.2199 8.39604 14.3099 8.46804L14.3039 8.47404Z" fill="white"/>
<path d="M12.5284 8.56397C12.5164 8.66597 12.5524 8.73197 12.6964 8.79197C12.9904 9.17597 13.2904 9.57197 13.5604 9.97997C13.5964 10.316 13.6624 10.694 13.6984 10.994C13.7884 11.714 13.9264 12.656 13.8124 13.064C13.7224 13.37 13.8124 13.502 13.9624 13.04C14.1004 12.578 14.0884 12.134 13.9984 11.45C13.9624 11.18 13.9504 10.838 13.9204 10.526C14.4004 11.258 14.8324 11.96 15.0244 12.446C15.1264 12.704 15.2164 12.764 15.1504 12.38C15.0484 11.87 14.5804 11.06 13.8844 9.99797C13.8604 9.71597 13.8484 9.45797 13.8484 9.21797C13.9504 9.33197 14.0164 9.26597 13.9864 9.11597C13.9204 8.85797 13.8184 8.64197 13.6924 8.34797C13.6444 8.22197 13.5244 8.19197 13.4644 8.37197C13.3864 8.58797 13.3744 8.62997 13.4764 8.77997C13.4644 8.93597 13.5244 9.21197 13.5424 9.45797C13.4164 9.27797 13.2604 9.04997 13.1344 8.85797C13.3264 8.93597 13.4404 8.88197 13.2724 8.70197C13.0984 8.50997 12.8644 8.31797 12.7144 8.17997C12.5644 8.04197 12.4984 8.13797 12.5224 8.25797C12.5344 8.38397 12.5464 8.47397 12.5344 8.57597L12.5284 8.56397Z" fill="white"/>
<path d="M14.5203 9.56007C14.4843 9.72807 14.4303 9.66207 14.3823 9.52407C14.3583 9.43407 14.3163 9.48807 14.3283 9.62607C14.3523 9.78207 14.3943 9.86607 14.5203 9.75207C14.5743 9.69807 14.5983 9.69807 14.6823 9.76407C14.7483 9.83007 14.8383 9.77607 14.8503 9.72807C14.8743 9.67407 14.8863 9.61407 14.8623 9.44607C14.8383 9.29007 14.7963 9.36807 14.7603 9.51207C14.7363 9.65607 14.6463 9.68007 14.6103 9.52407C14.5863 9.36807 14.5443 9.41007 14.5203 9.56007Z" fill="white"/>
<path d="M12.9962 13.796C13.0982 13.772 13.2782 13.64 13.4042 13.538C13.5662 13.412 13.4522 13.412 13.3502 13.46C13.2362 13.508 13.1582 13.562 13.0202 13.604C12.8702 13.658 12.8402 13.592 12.9062 13.37C12.9722 13.178 12.9062 13.166 12.8162 13.214C12.7262 13.25 12.6662 13.304 12.5522 13.37C12.4982 13.406 12.4862 13.472 12.6422 13.406C12.7802 13.352 12.7442 13.418 12.6962 13.586C12.6482 13.766 12.7622 13.856 12.9902 13.802L12.9962 13.796Z" fill="white"/>
<path d="M15.3307 11.84C15.3667 12.47 15.4567 12.764 15.0547 13.196C14.6227 13.658 14.3587 13.772 14.1667 13.82C13.9267 13.886 13.8367 13.988 14.2027 13.964C14.7367 13.928 14.8147 13.922 15.2527 13.412C15.5047 13.142 15.6307 12.782 15.6067 11.942C15.5827 10.472 15.3787 9.84196 15.4147 9.04996C15.5047 9.12796 15.6067 9.12796 15.5527 8.95996C15.4927 8.79196 15.4507 8.58796 15.3907 8.39596C15.3367 8.20396 15.3007 8.15596 15.2287 8.24596C15.1507 8.34796 15.0907 8.38396 15.0367 8.44996C14.9767 8.50396 14.9707 8.62996 15.0367 8.74396C15.2887 10.448 15.3007 11.204 15.3307 11.84Z" fill="white"/>
<path d="M16.2592 11.9841C16.3072 12.3441 16.3612 12.5841 16.2712 12.9801C16.2352 13.1061 16.2832 13.1361 16.3612 12.9921C16.6792 12.3921 16.4632 11.8761 16.4272 11.5341C16.3672 11.0121 16.1872 9.63807 16.1512 9.08007L16.1872 9.10407C16.3492 9.18207 16.5172 9.23007 16.3912 9.03807C16.2652 8.85807 16.1632 8.55207 16.0972 8.32407C16.0192 8.09607 15.9952 8.10807 15.8692 8.30007C15.6772 8.59407 15.8452 8.87607 15.8932 9.21807C16.0552 10.4241 16.2112 11.6601 16.2592 11.9841Z" fill="white"/>
<path d="M16.9808 10.0219C17.0948 10.1359 17.1728 10.3279 17.2328 10.4419C17.3108 10.6099 17.3588 10.4659 17.3588 10.3639C17.3708 10.2499 17.3348 9.93189 17.3708 9.82389C17.4368 9.66789 17.5388 9.88989 17.5868 9.77589C17.6228 9.69789 17.5508 9.68589 17.5268 9.59589C17.4908 9.49389 17.4488 9.50589 17.3648 9.55989C17.2988 9.61389 17.2628 9.68589 17.2508 9.73989C17.2388 9.84189 17.2628 9.97989 17.2748 10.1239C17.2748 10.2499 17.2508 10.2679 17.2088 10.1779C17.1728 10.0879 17.0588 9.84189 16.9928 9.75789C16.9388 9.67989 16.8248 9.73389 16.8308 9.82389C16.8308 9.91389 16.8428 9.88989 16.8308 10.0039C16.8188 10.1179 16.9568 10.1179 16.9808 10.0159V10.0219Z" fill="white"/>
<path d="M17.6514 10.7779C17.5494 10.8799 17.2314 11.1079 17.1174 11.1979C16.9794 11.3119 16.9434 11.3359 16.9434 11.4139C16.9434 11.4919 17.0934 11.3779 17.2074 11.2879C17.3094 11.2099 17.6394 11.0059 17.7654 10.9519C17.8914 10.8859 17.8674 10.8379 17.8554 10.7179C17.8314 10.5919 17.7534 10.6819 17.6514 10.7839V10.7779Z" fill="white"/>
<path d="M18.4507 10.358C18.6787 10.676 18.8827 10.958 19.0447 11.18C19.1227 11.63 19.1707 12.038 19.1467 12.368C19.1227 12.74 19.2007 12.74 19.2847 12.356C19.3087 12.2 19.3087 11.87 19.2727 11.474C19.5787 11.882 19.7647 12.152 19.8907 12.344C20.0287 12.584 20.1067 12.782 20.0707 12.296C20.0467 12.14 20.0047 11.978 19.7947 11.672C19.5907 11.378 19.4107 11.108 19.2247 10.85C19.1707 10.172 19.0867 9.44598 19.0867 9.06198C19.1767 9.15198 19.2487 9.06198 19.2007 8.91798C19.1527 8.76798 19.0627 8.37798 18.9967 8.20398C18.9367 8.04798 18.8707 8.07798 18.7807 8.22798C18.7027 8.37798 18.6427 8.44398 18.7027 8.55798C18.7267 9.21198 18.8167 9.84798 18.9187 10.424C18.7387 10.178 18.5647 9.93798 18.4087 9.72198C18.3967 9.47598 18.3727 9.22398 18.3607 8.97798C18.4627 9.05598 18.5107 9.03198 18.4507 8.88798C18.4027 8.73198 18.2827 8.40198 18.2227 8.25798C18.1687 8.11398 18.1327 8.11398 18.0547 8.22198C17.9287 8.41398 17.8927 8.55198 17.9947 8.73198C18.0067 8.88798 18.0307 9.06198 18.0427 9.20598C17.9407 9.06798 17.8507 8.93598 17.7667 8.80998C17.8687 8.86398 17.9467 8.77398 17.8327 8.67198C17.7307 8.56998 17.5147 8.40198 17.4247 8.27598C17.3227 8.14998 17.2327 8.14998 17.2327 8.26398C17.2327 8.37798 17.2447 8.47998 17.2327 8.58198C17.2087 8.67198 17.2087 8.76198 17.3467 8.91798C17.6107 9.23598 17.8567 9.55998 18.0967 9.86598C18.1867 10.994 18.2467 11.72 18.2227 12.17C18.2107 12.44 18.1207 12.602 17.9707 12.644C17.8207 12.698 17.6767 12.596 17.5387 12.398C17.2867 12.038 17.1967 12.104 17.0047 12.422C16.8247 12.716 16.6987 12.962 16.5967 13.178C16.5067 13.382 16.3447 13.562 16.2007 13.292C16.0627 13.022 16.0387 12.716 16.0507 12.5C16.0507 12.284 16.0147 12.116 15.9367 12.452C15.7327 13.286 15.8587 13.466 16.0867 13.652C16.3687 13.898 16.4647 13.922 16.6087 13.706C16.9027 13.298 16.9867 12.938 17.1547 12.734C17.2927 12.578 17.2927 12.698 17.3587 12.782C17.5327 12.998 17.6767 13.076 17.9167 13.112C18.1567 13.154 18.5887 12.956 18.5527 12.164C18.5287 11.69 18.4987 11.048 18.4507 10.358Z" fill="white"/>
<path d="M19.5722 9.39799C19.5722 9.58999 19.6382 9.56599 19.6742 9.38599C19.7102 9.21799 19.6982 8.87599 19.5962 8.64199C19.4942 8.39599 19.4582 8.48599 19.4042 8.56399C19.3382 8.67799 19.3442 8.70199 19.4282 8.82199C19.5062 8.95999 19.5782 9.20599 19.5782 9.39799H19.5722Z" fill="white"/>
<path d="M20.5312 11.5939C20.4712 10.1239 20.2792 9.48193 20.3272 8.92993C20.4532 9.04393 20.5192 9.00793 20.4412 8.81593C20.3512 8.62393 20.2612 8.41993 20.1772 8.23993C20.0872 8.04793 20.0632 8.09593 19.9612 8.22793C19.8472 8.36593 19.8352 8.46793 19.8832 8.54593C20.0992 10.3399 20.2012 11.2819 20.2252 11.8219C20.2732 12.6139 20.0752 13.0519 19.3012 13.5619C19.0492 13.7299 18.7672 13.9219 19.3672 13.7779C19.9612 13.6339 20.5972 13.2379 20.5312 11.5999V11.5939Z" fill="white"/>
<path d="M17.8377 11.864C17.9397 11.69 17.8617 11.48 17.7597 11.342C17.6697 11.222 17.6097 11.252 17.5557 11.318C17.5077 11.384 17.4777 11.438 17.5677 11.486C17.6577 11.534 17.7957 11.672 17.7417 11.822C17.7057 11.942 17.7417 12.032 17.8437 11.864H17.8377Z" fill="white"/>
<path d="M18.3602 13.5679C18.3602 13.5679 18.3242 13.5199 18.3602 13.4599C18.3902 13.4179 18.4022 13.3939 18.4202 13.3459C18.4442 13.2979 18.4202 13.2619 18.3422 13.2379C18.2582 13.2259 18.2282 13.2319 18.1382 13.2379C18.0902 13.2499 18.0722 13.2679 18.0662 13.3279C18.0662 13.4179 18.1262 13.4119 18.1802 13.4479C18.2162 13.4899 18.2342 13.5259 18.1802 13.5919C18.1262 13.6399 18.0902 13.6699 18.0362 13.7179C18.0122 13.7599 17.9942 13.8259 18.0722 13.8439C18.2162 13.8859 18.4862 13.7059 18.4862 13.6999C18.5402 13.6579 18.5222 13.5859 18.5162 13.5859C18.4862 13.5499 18.4142 13.5739 18.3662 13.5679H18.3602Z" fill="white"/>
<path d="M17.7474 18.8101C17.3034 18.8161 16.8534 18.8281 16.3974 18.8281V18.6781C16.5174 18.5401 16.5234 18.4861 16.4214 18.3361C16.3734 18.2701 16.3554 18.2581 16.3254 18.2581C16.2954 18.2581 16.2654 18.2821 16.2174 18.3421C16.1334 18.4621 16.1094 18.5101 16.2594 18.6841V18.8221C12.7794 18.8521 8.91537 18.8041 5.60938 18.7501C5.96937 19.3501 7.21137 19.3561 9.75537 19.3621C10.7934 19.3621 12.9234 19.3261 16.2714 19.2541V19.4161C16.1274 19.5841 16.1634 19.6381 16.2294 19.7341C16.2714 19.8001 16.3074 19.8361 16.3554 19.8361C16.3974 19.8361 16.4274 19.7881 16.4514 19.7521C16.4754 19.7221 16.4874 19.6981 16.4934 19.6741L17.0274 19.6621C17.0274 19.7161 17.1114 19.7641 17.1594 19.7641C17.2074 19.7641 17.2794 19.7161 17.2794 19.6501H17.8674C17.9274 19.7341 18.0174 19.7821 18.1014 19.7761C18.3174 19.7641 18.4074 19.5181 18.3894 19.2121C18.3534 18.8521 18.1734 18.7801 17.7534 18.7921L17.7474 18.8101ZM17.8134 19.5241H17.2794C17.2674 19.4701 17.2014 19.4281 17.1534 19.4281C17.0994 19.4281 17.0274 19.4821 17.0274 19.5421L16.4994 19.5541C16.4814 19.5001 16.4574 19.4641 16.4034 19.4221V19.2721C16.8654 19.2601 17.3454 19.2481 17.8374 19.2361C17.8014 19.3501 17.7954 19.4521 17.8134 19.5361V19.5241Z" fill="white"/>
</svg>
