<svg width="14" height="16" viewBox="0 0 14 16" fill="none" xmlns="http://www.w3.org/2000/svg">
<path d="M4.13154 3.35037C3.83288 3.35037 3.59021 3.10077 3.59021 2.79357V0.559974C3.59021 0.252774 3.83288 0.00317383 4.13154 0.00317383C4.43021 0.00317383 4.67288 0.252774 4.67288 0.559974V2.79357C4.67288 3.10077 4.43021 3.35037 4.13154 3.35037Z" fill="#12B3FA"/>
<path d="M9.87156 3.3504C9.5729 3.3504 9.33023 3.1008 9.33023 2.7936V0.56C9.32712 0.2496 9.56979 0 9.86845 0C10.1671 0 10.4098 0.2496 10.4129 0.5568V2.7904C10.4129 3.0976 10.1702 3.3472 9.87156 3.3472V3.3504Z" fill="#12B3FA"/>
<path d="M4.48939 9.8624C4.39606 9.8624 4.30273 9.84 4.21561 9.8016C3.93873 9.6928 3.76139 9.4208 3.76761 9.1168C3.76761 9.0208 3.78939 8.9248 3.82673 8.8352C3.86406 8.7456 3.91384 8.6624 3.97917 8.5888C4.04761 8.5216 4.1285 8.4672 4.21873 8.432C4.48939 8.32 4.79739 8.3808 5.00584 8.5888C5.1365 8.7328 5.21428 8.9216 5.21428 9.1168C5.21428 9.168 5.20806 9.216 5.19873 9.2672C5.18939 9.3152 5.17695 9.36 5.15517 9.4016C5.13961 9.4496 5.11784 9.4944 5.08984 9.536C5.06184 9.5744 5.03384 9.6128 5.00273 9.648C4.86273 9.7824 4.67917 9.8624 4.48939 9.8624Z" fill="#12B3FA"/>
<path d="M7.00001 9.8624C6.90668 9.8624 6.81335 9.84 6.72623 9.8016C6.44935 9.6928 6.27201 9.4208 6.27823 9.1168C6.27823 9.0208 6.30001 8.9248 6.33735 8.8352C6.37468 8.7456 6.42446 8.6624 6.48979 8.5888C6.55823 8.5216 6.63912 8.4672 6.72935 8.432C7.00001 8.3168 7.31112 8.3776 7.51646 8.5888C7.64712 8.7328 7.7249 8.9216 7.7249 9.1168C7.7249 9.168 7.71868 9.216 7.70935 9.2672C7.70001 9.3152 7.68757 9.36 7.66579 9.40159C7.65023 9.4496 7.62846 9.4944 7.60046 9.536C7.57246 9.5744 7.54446 9.6128 7.51335 9.648C7.37335 9.7824 7.18979 9.8624 7.00001 9.8624Z" fill="#12B3FA"/>
<path d="M9.51066 9.86238C9.41732 9.86238 9.32399 9.83998 9.23688 9.80158C9.14977 9.76638 9.06888 9.71198 8.99732 9.64478L8.91021 9.53278C8.88221 9.49118 8.86043 9.44638 8.84488 9.39838C8.8231 9.35678 8.81066 9.31198 8.80132 9.26398C8.79199 9.21598 8.78888 9.16478 8.78577 9.11358C8.78577 8.91518 8.86354 8.72638 8.99421 8.58558C9.06266 8.51838 9.14354 8.46398 9.23377 8.42878C9.50443 8.31038 9.81554 8.37438 10.0209 8.58558C10.1515 8.72958 10.2293 8.91838 10.2293 9.11358C10.2293 9.16478 10.2231 9.21278 10.2138 9.26398C10.2044 9.31198 10.192 9.35678 10.1702 9.39838C10.1547 9.44638 10.1329 9.49118 10.1049 9.53278C10.0769 9.57118 10.0489 9.60958 10.0178 9.64478C9.87777 9.77918 9.69421 9.85918 9.50443 9.85918L9.51066 9.86238Z" fill="#12B3FA"/>
<path d="M4.48929 12.464C4.39596 12.464 4.30263 12.4416 4.21552 12.4032C4.1284 12.3648 4.04752 12.3136 3.97596 12.2464C3.84529 12.1024 3.76752 11.9168 3.7644 11.7184C3.7644 11.6224 3.78618 11.5264 3.82352 11.4368C3.85774 11.344 3.90752 11.2608 3.97596 11.1904C4.26529 10.9152 4.71329 10.9152 5.00263 11.1904C5.28574 11.4784 5.28885 11.952 5.00574 12.2432C4.86885 12.384 4.68218 12.464 4.48929 12.464Z" fill="#12B3FA"/>
<path d="M7.00004 12.464C6.60492 12.4672 6.28137 12.144 6.27515 11.7376C6.27515 11.7312 6.27515 11.728 6.27515 11.7216C6.27515 11.6256 6.29692 11.5296 6.33426 11.44C6.36848 11.3472 6.41826 11.264 6.4867 11.1936C6.77604 10.9184 7.22404 10.9184 7.51337 11.1936C7.5787 11.264 7.63159 11.3472 7.66581 11.44C7.70315 11.5296 7.72181 11.6256 7.72492 11.7216C7.72804 12.128 7.41381 12.4608 7.0187 12.4672C7.01248 12.4672 7.00937 12.4672 7.00315 12.4672L7.00004 12.464Z" fill="#12B3FA"/>
<path d="M9.51061 12.464C9.31772 12.464 9.13417 12.384 8.99728 12.2496C8.93194 12.1792 8.87905 12.096 8.84483 12.0032C8.76705 11.824 8.76705 11.6192 8.84483 11.4368C8.87905 11.344 8.92883 11.2608 8.99728 11.1904C9.16839 11.0144 9.41105 10.9408 9.6475 10.9888C9.69417 10.9952 9.74083 11.0112 9.78439 11.0336C9.83105 11.0496 9.87461 11.072 9.91505 11.1008C9.95239 11.1296 9.98972 11.1584 10.0239 11.1904C10.3071 11.4784 10.3102 11.952 10.0271 12.2432C9.89017 12.384 9.7035 12.464 9.51061 12.464Z" fill="#12B3FA"/>
<path d="M13.1009 6.39363H0.899121C0.600455 6.39363 0.357788 6.14403 0.357788 5.83683C0.357788 5.52963 0.600455 5.28003 0.899121 5.28003H13.0978C13.3965 5.28003 13.6391 5.52963 13.6391 5.83683C13.6391 6.14403 13.3965 6.39363 13.0978 6.39363H13.1009Z" fill="#12B3FA"/>
<path d="M9.87156 16H4.12844C1.50889 16 0 14.4384 0 11.7216V5.39522C0 2.67842 1.50889 1.11682 4.12844 1.11682H9.87156C12.4911 1.11682 14 2.67842 14 5.39522V11.7216C14 14.4384 12.4911 16 9.87156 16ZM4.12844 2.23362C2.07511 2.23362 1.07644 3.26722 1.07644 5.39522V11.7216C1.07644 13.8496 2.07511 14.8832 4.12844 14.8832H9.87156C11.9249 14.8832 12.9236 13.8496 12.9236 11.7216V5.39522C12.9236 3.26722 11.9249 2.23362 9.87156 2.23362H4.12844Z" fill="#12B3FA"/>
</svg>
