<svg width="40" height="40" viewBox="0 0 40 40" fill="none" xmlns="http://www.w3.org/2000/svg">
<path d="M28.2 40H20C14.6533 40 9.64 37.92 5.85333 34.1467C2.08 30.36 0 25.3467 0 20C0 14.6533 2.08 9.64 5.85333 5.85333C9.64 2.08 14.6533 0 20 0C25.3467 0 30.36 2.08 34.1467 5.85333C37.92 9.62667 40 14.6533 40 20V23.08C40 26.76 37.0133 29.7467 33.3333 29.7467C30.8 29.7467 28.6 28.3333 27.4667 26.2533C25.68 28.3867 22.9867 29.7467 20 29.7467C14.6267 29.7467 10.2533 25.3733 10.2533 20C10.2533 14.6267 14.6267 10.2533 20 10.2533C25.3733 10.2533 29.7467 14.6267 29.7467 20V23.08C29.7467 25.0533 31.36 26.6667 33.3333 26.6667C35.3067 26.6667 36.92 25.0533 36.92 23.08V20C36.92 15.48 35.16 11.2267 31.96 8.04C28.76 4.84 24.52 3.08 20 3.08C15.48 3.08 11.2267 4.84 8.04 8.04C4.85333 11.24 3.08 15.48 3.08 20C3.08 24.52 4.84 28.7733 8.04 31.96C11.24 35.16 15.48 36.92 20 36.92H28.2C29.0533 36.92 29.7333 37.6133 29.7333 38.4533C29.7333 39.2933 29.04 39.9867 28.2 39.9867V40ZM20 13.3333C16.32 13.3333 13.3333 16.32 13.3333 20C13.3333 23.68 16.32 26.6667 20 26.6667C23.68 26.6667 26.6667 23.68 26.6667 20C26.6667 16.32 23.68 13.3333 20 13.3333Z" fill="white"/>
</svg>
