<svg width="40" height="40" viewBox="0 0 40 40" fill="none" xmlns="http://www.w3.org/2000/svg">
<path d="M38.7096 0H27.7419C27.3997 0 27.0715 0.135945 26.8295 0.377927C26.5875 0.61991 26.4516 0.948109 26.4516 1.29032C26.4516 1.63254 26.5875 1.96074 26.8295 2.20272C27.0715 2.4447 27.3997 2.58065 27.7419 2.58065H35.489L23.6251 13.9052C23.5025 14.0222 23.4042 14.1622 23.3357 14.3172C23.2672 14.4722 23.2299 14.6392 23.2259 14.8086C23.222 14.978 23.2514 15.1466 23.3126 15.3046C23.3738 15.4627 23.4655 15.6071 23.5825 15.7297C23.6995 15.8523 23.8395 15.9506 23.9945 16.0191C24.1496 16.0876 24.3165 16.1249 24.486 16.1289C24.6554 16.1328 24.8239 16.1034 24.982 16.0422C25.14 15.981 25.2844 15.8893 25.407 15.7723L37.4193 4.30581V12.2581C37.4193 12.6003 37.5553 12.9285 37.7972 13.1705C38.0392 13.4125 38.3674 13.5484 38.7096 13.5484C39.0519 13.5484 39.3801 13.4125 39.622 13.1705C39.864 12.9285 40 12.6003 40 12.2581V1.29032C40 0.948109 39.864 0.61991 39.622 0.377927C39.3801 0.135945 39.0519 0 38.7096 0Z" fill="white"/>
<path d="M38.7097 26.4516C38.3675 26.4516 38.0393 26.5875 37.7973 26.8295C37.5554 27.0715 37.4194 27.3997 37.4194 27.7419V35.5948L25.4284 23.6038C25.1851 23.3688 24.8591 23.2387 24.5208 23.2417C24.1825 23.2446 23.8589 23.3803 23.6196 23.6196C23.3804 23.8588 23.2447 24.1824 23.2417 24.5208C23.2388 24.8591 23.3689 25.185 23.6039 25.4284L35.5949 37.4194H27.742C27.3998 37.4194 27.0716 37.5553 26.8296 37.7973C26.5876 38.0393 26.4517 38.3675 26.4517 38.7097C26.4517 39.0519 26.5876 39.3801 26.8296 39.6221C27.0716 39.8641 27.3998 40 27.742 40H38.7097C39.052 40 39.3802 39.8641 39.6221 39.6221C39.8641 39.3801 40.0001 39.0519 40.0001 38.7097V27.7419C40.0001 27.3997 39.8641 27.0715 39.6221 26.8295C39.3802 26.5875 39.052 26.4516 38.7097 26.4516Z" fill="white"/>
<path d="M13.9265 24.249L2.58065 35.5948V27.7419C2.58065 27.3997 2.4447 27.0715 2.20272 26.8295C1.96074 26.5875 1.63254 26.4516 1.29032 26.4516C0.948109 26.4516 0.61991 26.5875 0.377927 26.8295C0.135945 27.0715 0 27.3997 0 27.7419V38.7097C0 39.0519 0.135945 39.3801 0.377927 39.6221C0.61991 39.864 0.948109 40 1.29032 40H12.2581C12.6003 40 12.9285 39.864 13.1705 39.6221C13.4125 39.3801 13.5484 39.0519 13.5484 38.7097C13.5484 38.3674 13.4125 38.0392 13.1705 37.7973C12.9285 37.5553 12.6003 37.4193 12.2581 37.4193H4.40517L15.751 26.0735C15.986 25.8302 16.1161 25.5042 16.1132 25.1659C16.1102 24.8276 15.9745 24.5039 15.7353 24.2647C15.496 24.0255 15.1724 23.8898 14.8341 23.8868C14.4958 23.8839 14.1698 24.0139 13.9265 24.249Z" fill="white"/>
<path d="M4.40517 2.58065H12.2581C12.6003 2.58065 12.9285 2.4447 13.1705 2.20272C13.4125 1.96074 13.5484 1.63254 13.5484 1.29032C13.5484 0.948109 13.4125 0.61991 13.1705 0.377927C12.9285 0.135945 12.6003 0 12.2581 0H1.29032C0.948109 0 0.61991 0.135945 0.377927 0.377927C0.135945 0.61991 0 0.948109 0 1.29032V12.2581C0 12.6003 0.135945 12.9285 0.377927 13.1705C0.61991 13.4125 0.948109 13.5484 1.29032 13.5484C1.63254 13.5484 1.96074 13.4125 2.20272 13.1705C2.4447 12.9285 2.58065 12.6003 2.58065 12.2581V4.40517L13.9265 15.751C14.1698 15.986 14.4958 16.1161 14.8341 16.1132C15.1724 16.1102 15.496 15.9745 15.7353 15.7353C15.9745 15.496 16.1102 15.1724 16.1132 14.8341C16.1161 14.4958 15.986 14.1698 15.751 13.9265L4.40517 2.58065Z" fill="white"/>
</svg>
