<svg width="32" height="40" viewBox="0 0 32 40" fill="none" xmlns="http://www.w3.org/2000/svg">
<path d="M21.36 40H10.64C6.27 39.99 3.84 39.34 2.25 37.74C0.65 36.14 0 33.71 0 29.35V10.64C0 6.28 0.65 3.84 2.25 2.25C3.84 0.65 6.28 0 10.64 0H21.36C25.73 0.01 28.16 0.66 29.75 2.26C31.35 3.86 32 6.29 32 10.65V29.36C32 33.72 31.35 36.16 29.75 37.75C28.15 39.35 25.72 40 21.36 40ZM10.64 2.57C7.08 2.57 5.11 3.02 4.06 4.06C3.01 5.11 2.57 7.07 2.57 10.63V29.34C2.57 32.9 3.02 34.87 4.06 35.91C5.11 36.96 7.07 37.4 10.64 37.4H21.36C24.92 37.41 26.89 36.96 27.94 35.92C28.99 34.87 29.43 32.91 29.43 29.35V10.65C29.43 7.09 28.98 5.12 27.94 4.08C26.89 3.03 24.93 2.59 21.36 2.59H10.64V2.57Z" fill="white"/>
<path d="M19.7505 9.1298H12.2705C11.5605 9.1298 10.9805 8.5498 10.9805 7.8398C10.9805 7.1298 11.5605 6.5498 12.2705 6.5498H19.7505C20.4605 6.5498 21.0405 7.1298 21.0405 7.8398C21.0405 8.5498 20.4605 9.1298 19.7505 9.1298Z" fill="white"/>
<path d="M16.0005 34.5699C13.6905 34.5699 11.8105 32.6899 11.8105 30.3799C11.8105 28.0699 13.6905 26.1899 16.0005 26.1899C18.3105 26.1899 20.1905 28.0699 20.1905 30.3799C20.1905 32.6899 18.3105 34.5699 16.0005 34.5699ZM16.0005 28.7699C15.1105 28.7699 14.3905 29.4899 14.3905 30.3799C14.3905 31.2699 15.1105 31.9899 16.0005 31.9899C16.8905 31.9899 17.6105 31.2699 17.6105 30.3799C17.6105 29.4899 16.8905 28.7699 16.0005 28.7699Z" fill="white"/>
</svg>
