<svg width="20" height="20" viewBox="0 0 20 20" fill="none" xmlns="http://www.w3.org/2000/svg">
<path d="M19.6949 18.18L16.094 14.58C17.3443 13 18.0245 11.04 18.0245 9.01C18.0245 6.6 17.0843 4.34 15.3838 2.64C13.6834 0.94 11.4229 0 9.01225 0C6.60165 0 4.34108 0.94 2.64066 2.64C0.940235 4.34 0 6.6 0 9.01C0 11.42 0.940235 13.68 2.64066 15.38C4.34108 17.08 6.60165 18.02 9.01225 18.02C11.0428 18.02 13.0032 17.34 14.5836 16.09L18.1845 19.69C18.3846 19.89 18.6547 20 18.9347 20C19.2148 20 19.4849 19.89 19.6849 19.69C20.105 19.27 20.105 18.6 19.6849 18.18H19.6949ZM9.01225 15.88C7.17179 15.88 5.45136 15.16 4.15104 13.87C2.85071 12.57 2.14054 10.85 2.14054 9.01C2.14054 7.17 2.86072 5.45 4.15104 4.15C5.44136 2.85 7.17179 2.14 9.01225 2.14C10.8527 2.14 12.5731 2.85 13.8735 4.15C15.1738 5.45 15.884 7.17 15.884 9.01C15.884 10.85 15.1638 12.57 13.8735 13.87C12.5731 15.17 10.8527 15.88 9.01225 15.88Z" fill="#808080"/>
</svg>
